<svg xmlns="http://www.w3.org/2000/svg" viewBox="0 0 1000 1000"><defs><style>.cls-1{fill:#f7f8fa;}.cls-2{fill:#b3b7ca;}.cls-3{fill:#dee0e8;}.cls-10,.cls-11,.cls-12,.cls-14,.cls-4{fill:none;}.cls-4{stroke:#b8bcce;}.cls-10,.cls-11,.cls-12,.cls-14,.cls-4,.cls-9{stroke-linecap:round;stroke-linejoin:round;}.cls-11,.cls-12,.cls-4{stroke-width:10px;}.cls-5{fill:#e3e5ec;}.cls-13,.cls-6{fill:#fff;}.cls-7{fill:#9ea4bc;}.cls-8{fill:#fffefd;}.cls-9{fill:#00104f;}.cls-10,.cls-14,.cls-9{stroke:#00104f;}.cls-10,.cls-9{stroke-width:4px;}.cls-11{stroke:#a1a6be;}.cls-12{stroke:#8f96b2;}.cls-13{opacity:0.2;}.cls-14{stroke-width:6px;}.cls-15{fill:#d6dae8;}</style></defs><title>l</title><g id="Layer_2_copy_2" data-name="Layer 2 copy 2"><circle class="cls-1" cx="499" cy="500" r="397.5"/><path class="cls-2" d="M528.34,205.58S506.69,257,483.13,279.45c0,0-48.28,9.17-88.55,34.3C382,321.59,370.25,331,361,342.11c-27.49,32.94-45.65,80.72-54.1,135,0,0-13.08-73.19,40.12-144C397.29,222.21,528.34,205.58,528.34,205.58Z"/><path class="cls-3" d="M717.64,760.14a706.2,706.2,0,0,1-8.46,78.94A398.16,398.16,0,0,1,331.3,861c-5.59-59.2-13.06-118.26-26.52-176.88,58.81-25.19,119.91-31.67,132.31-37.83,0,0-61.33,112.83,21.61,134.07s114.14-47.68,114.14-47.68,3.5-10.35,15.65-60.39l1.86.29c18.2,2.72,40.56,4.3,60.21,10.4,17.54,5.43,44.3,16.11,55.33,31.08C717.35,729.62,718.3,747.62,717.64,760.14Z"/><path class="cls-4" d="M590.35,672.61c18.2,2.72,40.56,4.3,60.21,10.4,17.54,5.43,44.3,16.11,55.33,31.08,11.46,15.53,12.41,33.53,11.75,46a706.2,706.2,0,0,1-8.46,78.94"/><path class="cls-4" d="M336.3,861c-5.59-59.2-13.06-118.26-26.52-176.88a416.26,416.26,0,0,1,47.8-16.87"/><path class="cls-2" d="M849,685.63C827,746,775.32,786,742.1,816.69,729.34,733.65,701.85,701,665,688.64c-6.89,53.19,2.46,108.79,31.47,155.13a398.43,398.43,0,0,1-47.25,24c-106-96.22-52-230.42-21.78-334.93C657.71,428,596,337.77,560.08,296.67s-52-13.15-52-13.15c-15.23,1.66,1.61-41.49,32.21-76.91,0,0,37.09-29.89,81,6.23S751.94,345.22,765.61,463.26C778.88,577.9,814.91,652.06,849,685.63Z"/><path class="cls-5" d="M503.5,530.52a51.65,51.65,0,0,1-27.11,6.91c-18.75-.54-28.46-11.79-33.48-23a47.78,47.78,0,0,1,21.56-5C479.86,509.44,495.4,519.57,503.5,530.52Z"/><path class="cls-6" d="M535.51,496.6s-11.21,22.28-32,33.92c-8.1-10.95-23.64-21.08-39-21.12a47.78,47.78,0,0,0-21.56,5,66.44,66.44,0,0,1-5.38-23.08,100.53,100.53,0,0,0,38,10.11C496.49,502.49,535.51,496.6,535.51,496.6Z"/><path class="cls-7" d="M437.09,646.32c-12.4,6.16-73.5,12.64-132.31,37.83-26.72,11.43-52.95,26.72-73.94,47.59l-26.28,35.2a398.27,398.27,0,0,1-29.09-36.36h0c9.21-31.46,35.46-29.89,35.46-29.89s21,12.06,38.11-38.89,52.09-29.85,52.32-112.85a477.22,477.22,0,0,1,5.49-71.83c8.45-54.28,26.61-102.06,54.1-135,9.3-11.15,21.08-20.52,33.63-28.36L389,333.19a334.33,334.33,0,0,0-7,34.54A360.55,360.55,0,0,0,377.84,437c0,.93.08,1.86.14,2.79.17,8.9.12,25.9,4.35,35.22,8,39.68,27.73,77.34,70,97C452.55,578.71,454.08,637.88,437.09,646.32Z"/><path class="cls-5" d="M585.56,479.74a25,25,0,1,1-8.46-18.81A25,25,0,0,1,585.56,479.74Z"/><path class="cls-5" d="M428.63,455.3A25,25,0,1,1,384,439.78a18.63,18.63,0,0,1,1.48-1.72,25,25,0,0,1,42.92,13.65A26.5,26.5,0,0,1,428.63,455.3Z"/><path class="cls-8" d="M450.15,424.16c-4.5,24.16-28.65,45-52.81,40.51a38.38,38.38,0,0,1-18-8.83c-2.81-24.42-1.9-48.65.23-69,8.74-2.88,20-2.06,32.26.22C436,391.51,454.66,400,450.15,424.16Z"/><path class="cls-8" d="M578,448c-4.5,24.16-28.66,45-52.82,40.5S486,455.84,490.46,431.68s25-25.35,49.15-20.85S582.46,423.83,578,448Z"/><path class="cls-9" d="M531.33,442.18c-2.1,6.28-5.88,10.68-8.42,9.83s-2.88-6.63-.77-12.92,5.88-10.68,8.42-9.83S533.44,435.9,531.33,442.18Z"/><path class="cls-9" d="M421.39,418.89c-2.14,6.27-5.93,10.65-8.47,9.79s-2.85-6.65-.71-12.93,5.93-10.65,8.47-9.79S423.53,412.62,421.39,418.89Z"/><path class="cls-7" d="M627.41,532.86c-12.37,42.87-28.77,90.72-36.49,138.91-13.84-2.27-29.23-5.5-33.87-12.11-12.63-17.93,4.13-78.85,13.46-108.64h0c30.24-25.87,52.55-62,64.78-84.78A204.88,204.88,0,0,1,627.41,532.86Z"/><path class="cls-4" d="M331.58,678.82c18.57,41.39,38.38,120.26,52.31,199.25"/><path class="cls-10" d="M609.87,507.19c-32.29,44.92-84.52,93.4-149.58,68.2C335.42,527,389,333.19,389,333.19"/><path class="cls-4" d="M413.24,731.26S344.5,853.05,476.46,867.42s106.3-106.68,100.34-120.7"/><path class="cls-11" d="M589.75,231.9S653,283,656.56,309.8"/><path class="cls-11" d="M601.1,288.79s11.9,34,30.85,52.09"/><path class="cls-11" d="M674.5,502s-10.24,84,21.65,123.06"/><path class="cls-11" d="M665.18,612s-10.09,32-15.21,76"/><path class="cls-11" d="M616,684.83s-2.18,61,22.73,94.07"/><path class="cls-12" d="M372.18,541.52s10.64,21.15-9.35,48.1c-21.37,28.79-16.43,46.19-16.43,46.19"/><path class="cls-13" d="M450.15,424.16c-4.5,24.16-28.65,45-52.81,40.51S358.16,432,362.66,407.85s25-25.34,49.15-20.84S454.66,400,450.15,424.16Z"/><path class="cls-14" d="M389,334.19a364.8,364.8,0,0,0-9.42,53.6c-2.13,20.4-3,44.63-.23,69,5.59,48.74,26,98.26,81,119.55,65.06,25.2,117.29-23.28,149.58-68.2"/><path class="cls-14" d="M375.73,303.3A210,210,0,0,0,347,334.07c-53.2,70.85-40.12,144-40.12,144"/><path class="cls-14" d="M511.28,228.53s-60,18.75-113,56.82"/><path class="cls-14" d="M305.33,488.69a485.32,485.32,0,0,0-4,61.25c-.23,83-35.17,61.9-52.32,112.85s-38.11,38.89-38.11,38.89"/><path class="cls-14" d="M347,334.07c50.32-110.86,181.37-127.49,181.37-127.49S506.69,258,483.13,280.45c0,0-83.05,15.77-122.18,62.66-15.4,18.45-27.87,41.56-37.35,67.86a338.63,338.63,0,0,0-11.07,37.72"/><path class="cls-14" d="M540.33,207.61s37.09-29.89,81,6.23S751.94,346.22,765.61,464.26,808.06,657.38,843,689.48"/><path class="cls-14" d="M633.81,450.07c-8.61-67.71-47.88-122.79-73.73-152.4-35.88-41.1-52-13.15-52-13.15"/><path class="cls-14" d="M649.46,868.93c-107.73-96.31-52.35-230.15-22.05-335.07a206.25,206.25,0,0,0,6.26-29.63"/><path class="cls-14" d="M651.09,339.08s58.37,82.17,67,147.64c12.72,96.94-6.44,150.88,45.19,208.89a471.34,471.34,0,0,1,29.66,36.65"/><path class="cls-14" d="M670.11,692.72c12.58,5.21,24.25,12.31,33.78,22.36"/><path class="cls-14" d="M561.54,583.49c-7.55,29.65-13.51,64.37-4.49,77.17,5.31,7.55,17.51,11.24,33.08,14.16"/><path class="cls-14" d="M269.85,702.83a204.23,204.23,0,0,0-39,29.91"/><path class="cls-14" d="M452.3,573.37s2.81,65-15.21,74c-8.34,4.14-38.68,8.43-75.54,18.44"/><path class="cls-14" d="M711.19,840.07A711.54,711.54,0,0,0,719.77,759"/><path class="cls-14" d="M304.78,685.14c4.72,20.55,8.7,41.15,12.12,61.79"/><path class="cls-14" d="M437.09,647.32S375.76,760.15,458.7,781.39s114.14-47.68,114.14-47.68"/><path class="cls-14" d="M437.53,492.32a410.24,410.24,0,0,0,43,7.13c25.49,2.57,55-1.85,55-1.85s-21.12,41.94-59.12,40.83S437.53,492.32,437.53,492.32Z"/><path class="cls-14" d="M477.75,413.44s-20.58,29.44-18.12,40.95c1.69,7.88,9,12,9,12"/><path class="cls-14" d="M526.77,385.79s45.05-6.62,59.86,15.51"/><path class="cls-14" d="M452.91,370.46S419.08,340,394.48,350.17"/><path class="cls-15" d="M542,775V898.68c-72.74,7.24-145.69-6.15-210.66-36.74A400.83,400.83,0,0,1,187.34,748H515A27,27,0,0,1,542,775Z"/><path class="cls-14" d="M187.34,748H515a27,27,0,0,1,27,27V898.68"/><path class="cls-14" d="M897.5,503.13c-.41,142.38-75.62,267.06-188.32,337a397.78,397.78,0,0,1-533.71-108.5h0a395.59,395.59,0,0,1-73-230.7c.62-219.53,179.1-397,398.63-396.37S898.12,283.6,897.5,503.13Z"/><path class="cls-14" d="M450.15,425.16c-4.5,24.16-28.65,45-52.81,40.51S358.16,433,362.66,408.85s25-25.34,49.15-20.84S454.66,401,450.15,425.16Z"/><path class="cls-14" d="M578,449c-4.5,24.16-28.66,45-52.82,40.5S486,456.84,490.46,432.68s25-25.35,49.15-20.85S582.46,424.83,578,449Z"/></g></svg>