<svg id="Layer_1" data-name="Layer 1" xmlns="http://www.w3.org/2000/svg" viewBox="0 0 38.33 38.33"><defs><style>.cls-1{fill:#f46993;}</style></defs><title>message-happy</title><path class="cls-1" d="M31.17,4.23H7.3A5.07,5.07,0,0,0,2.23,9.3V22.17A5.06,5.06,0,0,0,7.3,27.23H20.13l10.24,9,0-9h.82a5.05,5.05,0,0,0,5.06-5.06V9.3A5.06,5.06,0,0,0,31.17,4.23ZM20.38,11c2.48-1.25,3.86.09,3.92.15a.8.8,0,0,1-1.12,1.14c-.05,0-.71-.55-2.09.14a.76.76,0,0,1-.36.08A.8.8,0,0,1,20.38,11Zm-8,0c2.48-1.25,3.86.09,3.92.15a.8.8,0,0,1-1.12,1.14s-.71-.55-2.09.14a.76.76,0,0,1-.36.08A.8.8,0,0,1,12.38,11ZM27.3,16.3c-3,3-6,4.46-8.93,4.46-.27,0-.54,0-.82,0-4.62-.43-7.36-4.37-7.48-4.53a.8.8,0,0,1,1.32-.91s2.46,3.49,6.33,3.85c2.74.25,5.57-1.09,8.45-4A.8.8,0,0,1,27.3,16.3Z"/><path class="cls-1" d="M65.17-31.77H41.3a5.07,5.07,0,0,0-5.07,5.07v12.87A5.06,5.06,0,0,0,41.3-8.77H53.13l11.24,9,0-9h.82a5.05,5.05,0,0,0,5.06-5.06V-26.7A5.06,5.06,0,0,0,65.17-31.77Z"/></svg>