<svg id="Layer_1" data-name="Layer 1" xmlns="http://www.w3.org/2000/svg" viewBox="0 0 38.33 38.33"><defs><style>.cls-1{fill:#fff;}.cls-2{fill:#f46993;}</style></defs><title>message</title><path class="cls-1" d="M31.17,4.23H7.3A5.07,5.07,0,0,0,2.23,9.3V22.17A5.06,5.06,0,0,0,7.3,27.23H20.13l10.24,9,0-9h.82a5.05,5.05,0,0,0,5.06-5.06V9.3A5.06,5.06,0,0,0,31.17,4.23Z"/><path class="cls-2" d="M65.17-31.77H41.3a5.07,5.07,0,0,0-5.07,5.07v12.87A5.06,5.06,0,0,0,41.3-8.77H53.13l11.24,9,0-9h.82a5.05,5.05,0,0,0,5.06-5.06V-26.7A5.06,5.06,0,0,0,65.17-31.77Z"/></svg>